<svg xmlns="http://www.w3.org/2000/svg" version="1.1" xmlns:xlink="http://www.w3.org/1999/xlink" xmlns:svgjs="http://svgjs.com/svgjs" width="1080" height="1080" preserveAspectRatio="none" viewBox="0 0 1080 1080"><g mask="url(&quot;#SvgjsMask1078&quot;)" fill="none"><rect width="1080" height="1080" x="0" y="0" fill="#0e2a47"></rect><path d="M0,377.414C94.018,398.196,192.075,476.158,277.682,432.082C361.691,388.829,357.716,266.753,388.465,177.406C416.062,97.218,469.355,17.724,448.579,-64.496C428.145,-145.361,337.134,-181.771,281.909,-244.276C227.389,-305.982,197.548,-388.537,126.105,-429.476C44.739,-476.101,-50.59,-502.259,-143.264,-487.914C-242.014,-472.628,-340.22,-426.823,-401.407,-347.821C-461.492,-270.242,-475.163,-165.35,-468.933,-67.422C-463.398,19.573,-416.793,95.703,-368.569,168.32C-326.479,231.701,-274.778,287.049,-208.602,324.592C-144.924,360.718,-71.486,361.612,0,377.414" fill="#0b2239"></path><path d="M1080 1476.976C1178.873 1487.298 1285.578 1583.695 1367.745 1527.741 1450.6480000000001 1471.286 1410.383 1337.924 1428.939 1239.355 1442.593 1166.825 1458.982 1098.746 1462.386 1025.021 1466.574 934.326 1500.634 834.519 1451.147 758.399 1401.092 681.406 1301.502 645.75 1210.091 636.95 1125.529 628.809 1051.429 682.072 972.026 712.273 899.5070000000001 739.855 822.442 755.058 764.35 806.488 701.075 862.506 654.4839999999999 934.451 629.777 1015.268 602.223 1105.394 578.3109999999999 1205.523 615.941 1291.929 653.729 1378.6979999999999 740.53 1436.383 828.439 1471.437 907.958 1503.146 994.855 1468.087 1080 1476.976" fill="#113255"></path></g><defs><mask id="SvgjsMask1078"><rect width="1080" height="1080" fill="#ffffff"></rect></mask></defs></svg>